<svg xmlns="http://www.w3.org/2000/svg" width="600" height="700" viewBox="0 0 600 700">
  <rect width="600" height="700" fill="#f5f5f5" rx="12"/>
  <!-- Robe body -->
  <path d="M200 140 L200 580 Q200 590 210 590 L390 590 Q400 590 400 580 L400 140" fill="#f0f0f0" stroke="#ccc" stroke-width="2"/>
  <!-- Collar left -->
  <path d="M200 140 Q220 130 250 140 L280 200 L300 300" fill="#e8e8e8" stroke="#ccc" stroke-width="1.5"/>
  <!-- Collar right -->
  <path d="M400 140 Q380 130 350 140 L320 200 L300 300" fill="#e8e8e8" stroke="#ccc" stroke-width="1.5"/>
  <!-- Left sleeve -->
  <path d="M200 160 L110 240 L110 380 Q110 390 120 390 L170 390 L170 280 L200 240" fill="#f0f0f0" stroke="#ccc" stroke-width="2"/>
  <!-- Right sleeve -->
  <path d="M400 160 L490 240 L490 380 Q490 390 480 390 L430 390 L430 280 L400 240" fill="#f0f0f0" stroke="#ccc" stroke-width="2"/>
  <!-- Belt/sash -->
  <rect x="195" y="340" width="210" height="16" rx="3" fill="#ddd" stroke="#bbb" stroke-width="1"/>
  <path d="M300 356 L290 400 M300 356 L310 400" stroke="#ccc" stroke-width="2"/>
  <!-- "Soak in Bliss" on left chest -->
  <text x="240" y="230" text-anchor="middle" font-family="Georgia, serif" font-size="10" font-style="italic" fill="#999" letter-spacing="1">Soak in</text>
  <text x="240" y="245" text-anchor="middle" font-family="Georgia, serif" font-size="12" font-weight="bold" fill="#888" letter-spacing="2">BLISS</text>
  <!-- MBS Logo circle on back (shown as shadow through) -->
  <circle cx="300" cy="460" r="35" fill="none" stroke="#ddd" stroke-width="1.5" stroke-dasharray="4,2"/>
  <text x="300" y="455" text-anchor="middle" font-family="Georgia, serif" font-size="20" font-weight="bold" fill="#ccc">MBS</text>
  <text x="300" y="472" text-anchor="middle" font-family="Arial, sans-serif" font-size="7" fill="#ccc" letter-spacing="1.5">LOGO ON BACK</text>
  <!-- Stitching detail -->
  <line x1="300" y1="200" x2="300" y2="590" stroke="#e0e0e0" stroke-width="0.5" stroke-dasharray="6,4"/>
  <!-- Label -->
  <text x="300" y="640" text-anchor="middle" font-family="Georgia, serif" font-size="22" font-weight="bold" fill="#333">MBS White Robe</text>
  <text x="300" y="668" text-anchor="middle" font-family="Arial, sans-serif" font-size="14" fill="#666">"Soak in Bliss" — Left Chest | MBS Logo Back</text>
</svg>
