<svg xmlns="http://www.w3.org/2000/svg" width="600" height="700" viewBox="0 0 600 700">
  <rect width="600" height="700" fill="#f5f5f5" rx="12"/>
  <!-- Sweatpants -->
  <path d="M220 100 L200 100 Q185 100 185 115 L185 300 L155 570 Q155 590 175 590 L250 590 Q265 590 265 570 L290 340 L315 570 Q315 590 330 590 L405 590 Q420 590 420 570 L390 300 L390 115 Q390 100 375 100 L355 100" fill="#1a1a1a" stroke="#333" stroke-width="2"/>
  <!-- Waistband -->
  <rect x="185" y="95" width="205" height="30" rx="5" fill="#222" stroke="#444" stroke-width="1.5"/>
  <!-- Drawstring -->
  <path d="M275 108 Q288 125 300 108" stroke="#777" stroke-width="1.5" fill="none"/>
  <!-- "Soak in Bliss" running down left leg -->
  <text x="210" y="200" text-anchor="middle" font-family="Georgia, serif" font-size="18" font-weight="bold" fill="#888" letter-spacing="4">S</text>
  <text x="207" y="235" text-anchor="middle" font-family="Georgia, serif" font-size="18" font-weight="bold" fill="#888" letter-spacing="4">O</text>
  <text x="204" y="270" text-anchor="middle" font-family="Georgia, serif" font-size="18" font-weight="bold" fill="#888" letter-spacing="4">A</text>
  <text x="201" y="305" text-anchor="middle" font-family="Georgia, serif" font-size="18" font-weight="bold" fill="#888" letter-spacing="4">K</text>
  <text x="196" y="345" text-anchor="middle" font-family="Georgia, serif" font-size="14" fill="#888" letter-spacing="3">IN</text>
  <text x="190" y="385" text-anchor="middle" font-family="Georgia, serif" font-size="18" font-weight="bold" fill="#888" letter-spacing="4">B</text>
  <text x="185" y="420" text-anchor="middle" font-family="Georgia, serif" font-size="18" font-weight="bold" fill="#888" letter-spacing="4">L</text>
  <text x="180" y="455" text-anchor="middle" font-family="Georgia, serif" font-size="18" font-weight="bold" fill="#888" letter-spacing="4">I</text>
  <text x="175" y="490" text-anchor="middle" font-family="Georgia, serif" font-size="18" font-weight="bold" fill="#888" letter-spacing="4">S</text>
  <text x="170" y="525" text-anchor="middle" font-family="Georgia, serif" font-size="18" font-weight="bold" fill="#888" letter-spacing="4">S</text>
  <!-- Cuff ribbing -->
  <rect x="155" y="570" width="110" height="20" rx="4" fill="#111" stroke="#333" stroke-width="1"/>
  <rect x="315" y="570" width="105" height="20" rx="4" fill="#111" stroke="#333" stroke-width="1"/>
  <!-- Label -->
  <text x="300" y="640" text-anchor="middle" font-family="Georgia, serif" font-size="22" font-weight="bold" fill="#333">MBS Sweatpants</text>
  <text x="300" y="668" text-anchor="middle" font-family="Arial, sans-serif" font-size="14" fill="#666">"Soak in Bliss" Down the Leg</text>
</svg>
