<svg xmlns="http://www.w3.org/2000/svg" width="600" height="700" viewBox="0 0 600 700">
  <rect width="600" height="700" fill="#f5f5f5" rx="12"/>
  <!-- Hoodie (left) -->
  <g transform="translate(-80, 20) scale(0.7)">
    <path d="M180 200 L180 550 Q180 570 200 570 L400 570 Q420 570 420 550 L420 200" fill="#1a1a1a" stroke="#333" stroke-width="2"/>
    <path d="M180 200 Q180 120 230 100 Q270 85 300 80 Q330 85 370 100 Q420 120 420 200" fill="#1a1a1a" stroke="#333" stroke-width="2"/>
    <path d="M230 200 Q230 140 270 125 Q290 118 300 115 Q310 118 330 125 Q370 140 370 200" fill="#2a2a2a"/>
    <path d="M180 200 L100 280 L100 350 Q100 360 110 360 L160 360 L160 280 L180 260" fill="#1a1a1a" stroke="#333" stroke-width="2"/>
    <path d="M420 200 L500 280 L500 350 Q500 360 490 360 L440 360 L440 280 L420 260" fill="#1a1a1a" stroke="#333" stroke-width="2"/>
    <circle cx="300" cy="310" r="40" fill="none" stroke="#888" stroke-width="2"/>
    <text x="300" y="305" text-anchor="middle" font-family="Georgia, serif" font-size="26" font-weight="bold" fill="#ccc">MBS</text>
    <text x="300" y="322" text-anchor="middle" font-family="Arial, sans-serif" font-size="8" fill="#999" letter-spacing="2">MIND BODY &amp; SOUL</text>
  </g>
  <!-- Sweatpants (right) -->
  <g transform="translate(200, 30) scale(0.7)">
    <path d="M220 180 L200 180 Q190 180 190 190 L190 350 L170 560 Q170 575 185 575 L240 575 Q250 575 250 560 L270 380 L290 560 Q290 575 305 575 L360 575 Q370 575 370 560 L350 350 L350 190 Q350 180 340 180 L320 180" fill="#1a1a1a" stroke="#333" stroke-width="2"/>
    <!-- Waistband -->
    <rect x="190" y="175" width="160" height="25" rx="4" fill="#222" stroke="#444" stroke-width="1"/>
    <!-- Drawstring -->
    <path d="M260 185 Q270 200 280 185" stroke="#666" stroke-width="1.5" fill="none"/>
    <!-- Soak in Bliss down left leg -->
    <text x="220" y="300" text-anchor="middle" font-family="Georgia, serif" font-size="14" fill="#888" transform="rotate(-5, 220, 300)" letter-spacing="3">S</text>
    <text x="218" y="330" text-anchor="middle" font-family="Georgia, serif" font-size="14" fill="#888" letter-spacing="3">O</text>
    <text x="216" y="360" text-anchor="middle" font-family="Georgia, serif" font-size="14" fill="#888" letter-spacing="3">A</text>
    <text x="214" y="390" text-anchor="middle" font-family="Georgia, serif" font-size="14" fill="#888" letter-spacing="3">K</text>
    <text x="210" y="430" text-anchor="middle" font-family="Georgia, serif" font-size="11" fill="#888" letter-spacing="2">IN</text>
    <text x="205" y="465" text-anchor="middle" font-family="Georgia, serif" font-size="14" fill="#888" letter-spacing="3">B</text>
    <text x="200" y="495" text-anchor="middle" font-family="Georgia, serif" font-size="14" fill="#888" letter-spacing="3">L</text>
    <text x="195" y="525" text-anchor="middle" font-family="Georgia, serif" font-size="14" fill="#888" letter-spacing="3">I</text>
    <text x="190" y="555" text-anchor="middle" font-family="Georgia, serif" font-size="14" fill="#888" letter-spacing="3">S</text>
    <text x="185" y="570" text-anchor="middle" font-family="Georgia, serif" font-size="14" fill="#888" letter-spacing="3">S</text>
  </g>
  <!-- Label -->
  <text x="300" y="640" text-anchor="middle" font-family="Georgia, serif" font-size="22" font-weight="bold" fill="#333">MBS Hoodie + Sweats Set</text>
  <text x="300" y="668" text-anchor="middle" font-family="Arial, sans-serif" font-size="16" fill="#666">$40 Bundle — Save $10</text>
</svg>
